<svg xmlns="http://www.w3.org/2000/svg" width="50" height="50" viewBox="0 0 50 50">
    <path d="M 0 4 L 0 46 L 50 46 L 50 4 L 0 4 z M 5 9 L 45 9 L 45 41 L 5 41 L 5 9 z M 33 15 C 30.794 15 29 16.794 29 19 C 29 21.206 30.794 23 33 23 C 35.206 23 37 21.206 37 19 C 37 16.794 35.206 15 33 15 z M 17.03125 16 C 16.72525 15.994 16.45 16.11075 16.25 16.34375 L 7 27.15625 L 7 39 L 43 39 L 43 29.125 L 35.375 26.0625 C 35.113 25.9565 34.8195 25.96775 34.5625 26.09375 L 27.3125 29.71875 L 17.8125 16.40625 C 17.6335 16.15625 17.33925 16.014 17.03125 16 z"></path>
</svg>