<?xml version="1.0" encoding="UTF-8"?>
<svg width="171px" height="171px" viewBox="0 0 171 171" version="1.1" xmlns="http://www.w3.org/2000/svg" xmlns:xlink="http://www.w3.org/1999/xlink">
    <!-- Generator: Sketch 47.1 (45422) - http://www.bohemiancoding.com/sketch -->
    <title>Group 2 Copy 10</title>
    <desc>Created with Sketch.</desc>
    <defs>
        <filter x="-13.6%" y="-13.6%" width="127.3%" height="127.3%" filterUnits="objectBoundingBox" id="filter-1">
            <feGaussianBlur stdDeviation="6.40904018" in="SourceGraphic"></feGaussianBlur>
        </filter>
    </defs>
    <g id="video" stroke="none" stroke-width="1" fill="none" fill-rule="evenodd">
        <g id="Group-2-Copy-10" transform="translate(15.000000, 15.000000)">
            <circle id="Oval" fill="#2D2D2D" opacity="0.796637228" filter="url(#filter-1)" cx="70.5" cy="70.5" r="70.5"></circle>
            <g id="Page-1-Copy-4" transform="translate(9.000000, 9.000000)">
                <path d="M61.7109,123.422 C27.6419,123.422 -0.0001,95.78 -0.0001,61.711 C-0.0001,27.642 27.6419,0 61.7109,0 C95.7799,0 123.4219,27.642 123.4219,61.711 C123.4219,95.78 95.7799,123.422 61.7109,123.422 Z" id="Stroke-1" stroke="#00AFE6" stroke-width="4"></path>
                <path d="M87.7557921,65.2587431 L52.6521758,85.9079764 C52.0065108,86.2950542 51.2974036,86.4893961 50.5874933,86.4893961 C49.8775831,86.4893961 49.1676728,86.2950542 48.5228109,85.9730247 C47.232284,85.1980662 46.4573254,83.843294 46.4573254,82.3592282 L46.4573254,41.0607615 C46.4573254,39.5774988 47.232284,38.2219236 48.5228109,37.446965 C49.8125348,36.7370547 51.4266972,36.7370547 52.6521758,37.5120133 L87.7557921,58.1612467 C89.046319,58.8711569 89.8204746,60.2259291 89.8204746,61.7099949 C89.8204746,63.1940606 89.046319,64.5488328 87.7557921,65.2587431" id="Fill-3" fill="#00AFE6"></path>
            </g>
        </g>
    </g>
</svg>