<?xml version="1.0" encoding="utf-8"?>
<!-- Generator: Adobe Illustrator 22.1.0, SVG Export Plug-In . SVG Version: 6.00 Build 0)  -->
<svg version="1.1" id="Шар_1" xmlns="http://www.w3.org/2000/svg" xmlns:xlink="http://www.w3.org/1999/xlink" x="0px" y="0px"
	 viewBox="0 0 25.9 25.9" style="enable-background:new 0 0 25.9 25.9;" xml:space="preserve">
<style type="text/css">
	.st0{fill:#FFFFFF;}
</style>
<title>instagram-logo</title>
<desc>Created with Sketch.</desc>
<g id="Desktop-HD" transform="translate(-362.000000, -2842.000000)">
	<g id="footer" transform="translate(0.000000, 2476.000000)">
		<g id="instagram-logo" transform="translate(362.000000, 366.000000)">
			<path id="Shape" class="st0" d="M18.7,0H7.1C3.2,0,0,3.2,0,7.1v11.6c0,3.9,3.2,7.1,7.1,7.1h11.6c3.9,0,7.1-3.2,7.1-7.1V7.1
				C25.9,3.2,22.7,0,18.7,0z M23.6,18.7c0,2.7-2.2,4.8-4.8,4.8H7.1c-2.7,0-4.8-2.2-4.8-4.8V7.1c0-2.7,2.2-4.8,4.8-4.8h11.6
				c2.7,0,4.8,2.2,4.8,4.8L23.6,18.7L23.6,18.7z"/>
			<path id="Shape_1_" class="st0" d="M12.9,6.3c-3.7,0-6.7,3-6.7,6.7c0,3.7,3,6.7,6.7,6.7s6.7-3,6.7-6.7
				C19.6,9.3,16.6,6.3,12.9,6.3z M12.9,17.3c-2.4,0-4.4-2-4.4-4.4c0-2.4,2-4.4,4.4-4.4s4.4,2,4.4,4.4C17.3,15.3,15.3,17.3,12.9,17.3
				z"/>
			<path id="Shape_2_" class="st0" d="M19.9,4.3c-0.4,0-0.9,0.2-1.2,0.5c-0.3,0.3-0.5,0.7-0.5,1.2c0,0.4,0.2,0.9,0.5,1.2
				c0.3,0.3,0.7,0.5,1.2,0.5c0.4,0,0.9-0.2,1.2-0.5c0.3-0.3,0.5-0.7,0.5-1.2c0-0.4-0.2-0.9-0.5-1.2C20.7,4.5,20.3,4.3,19.9,4.3z"/>
		</g>
	</g>
</g>
</svg>
