<?xml version="1.0" encoding="utf-8"?>
<!-- Generator: Adobe Illustrator 22.1.0, SVG Export Plug-In . SVG Version: 6.00 Build 0)  -->
<svg version="1.1" id="Capa_1" xmlns="http://www.w3.org/2000/svg" xmlns:xlink="http://www.w3.org/1999/xlink" x="0px" y="0px"
	 viewBox="0 0 512 448.6" style="enable-background:new 0 0 512 448.6;" xml:space="preserve">
<style type="text/css">
	.st0{fill:#FFFFFF;}
</style>
<g>
	<g id="shopping-basket">
		<path class="st0" d="M380.5,164.4L277.1,9.4C272.4,4.7,265.4,0,258.3,0c-7,0-14.1,2.3-18.8,9.4l-103.3,155H23.5
			C9.4,164.4,0,173.8,0,187.9c0,2.3,0,4.7,0,7l58.7,218.4c4.7,18.8,23.5,35.2,44.6,35.2h305.3c21.1,0,39.9-14.1,44.6-35.2L512,194.9
			c0-2.3,0-4.7,0-7c0-14.1-9.4-23.5-23.5-23.5L380.5,164.4L380.5,164.4z M187.9,164.4l70.5-103.3l70.5,103.3H187.9z M258.3,352.3
			c-25.8,0-47-21.1-47-47s21.1-47,47-47s47,21.1,47,47S284.2,352.3,258.3,352.3z"/>
	</g>
</g>
</svg>
