<?xml version="1.0" encoding="utf-8"?>
<!-- Generator: Adobe Illustrator 22.1.0, SVG Export Plug-In . SVG Version: 6.00 Build 0)  -->
<svg version="1.1" id="Шар_1" xmlns="http://www.w3.org/2000/svg" xmlns:xlink="http://www.w3.org/1999/xlink" x="0px" y="0px"
	 viewBox="0 0 26 26" style="enable-background:new 0 0 26 26;" xml:space="preserve">
<style type="text/css">
	.st0{fill:#FFFFFF;}
</style>
<title>vk-social-logotype</title>
<desc>Created with Sketch.</desc>
<g id="Desktop-HD" transform="translate(-423.000000, -2841.000000)">
	<g id="footer" transform="translate(0.000000, 2476.000000)">
		<g id="vk-social-logotype" transform="translate(423.000000, 365.000000)">
			<path id="Shape" class="st0" d="M24.6,0H1.4C0.6,0,0,0.6,0,1.4v23.2C0,25.4,0.6,26,1.4,26h23.2c0.8,0,1.4-0.6,1.4-1.4V1.4
				C26,0.6,25.4,0,24.6,0z M20.7,14.6c0.7,0.7,1.5,1.3,2.1,2.1c0.3,0.3,0.5,0.7,0.7,1.1c0.3,0.6,0,1.2-0.5,1.2L20,19
				c-0.8,0.1-1.4-0.3-2-0.8c-0.4-0.4-0.8-0.9-1.2-1.4c-0.2-0.2-0.3-0.4-0.6-0.5c-0.4-0.3-0.8-0.2-1,0.3c-0.2,0.5-0.3,1-0.3,1.5
				c0,0.7-0.3,0.9-1,1c-1.6,0.1-3.1-0.2-4.5-1c-1.2-0.7-2.2-1.7-3-2.8c-1.6-2.2-2.8-4.6-3.9-7C2.2,7.7,2.4,7.4,3,7.4c1,0,2,0,3,0
				c0.4,0,0.7,0.2,0.8,0.6c0.5,1.4,1.2,2.6,2.1,3.8c0.2,0.3,0.5,0.6,0.8,0.9c0.4,0.2,0.6,0.2,0.8-0.2c0.1-0.3,0.2-0.5,0.2-0.8
				c0.1-0.9,0.1-1.9,0-2.8c-0.1-0.6-0.4-1-1-1.1C9.3,7.7,9.4,7.6,9.5,7.4C9.8,7.1,10,7,10.5,7L14,7c0.6,0.1,0.7,0.4,0.8,0.9l0,3.9
				c0,0.2,0.1,0.9,0.5,1c0.3,0.1,0.5-0.1,0.7-0.3c0.8-0.9,1.4-2,2-3c0.2-0.5,0.4-1,0.6-1.5c0.1-0.4,0.4-0.6,0.8-0.5l3.4,0
				c0.1,0,0.2,0,0.3,0c0.6,0.1,0.7,0.3,0.6,0.9c-0.3,0.9-0.8,1.6-1.3,2.3c-0.6,0.8-1.2,1.5-1.7,2.3C20,13.7,20.1,14,20.7,14.6z"/>
		</g>
	</g>
</g>
</svg>
