<?xml version="1.0" encoding="UTF-8"?>
<svg width="21px" height="18px" viewBox="0 0 21 18" version="1.1" xmlns="http://www.w3.org/2000/svg" xmlns:xlink="http://www.w3.org/1999/xlink">
    <!-- Generator: Sketch 48.2 (47327) - http://www.bohemiancoding.com/sketch -->
    <title>shopping-basket-button</title>
    <desc>Created with Sketch.</desc>
    <defs></defs>
    <g id="Desktop-HD" stroke="none" stroke-width="1" fill="none" fill-rule="evenodd" transform="translate(-1089.000000, -32.000000)">
        <g id="block1" transform="translate(-3.000000, -61.000000)" fill="#FFFFFF" fill-rule="nonzero">
            <g id="menu" transform="translate(3.000000, 60.000000)">
                <g id="shopping-basket-button" transform="translate(1089.000000, 33.000000)">
                    <path d="M15.6026978,6.59969262 L11.3649281,0.391905738 C11.1722644,0.203790984 10.8833633,0.0156762295 10.5944245,0.0156762295 C10.3054856,0.0156762295 10.0165468,0.109733607 9.82392086,0.391905738 L5.58615108,6.59969262 L0.963129496,6.59969262 C0.385251799,6.59969262 0,6.97592213 0,7.54026639 C0,7.63432377 0,7.72838115 0,7.82243852 L2.40782374,16.5697746 C2.60044964,17.3222336 3.37095324,17.9806352 4.23776978,17.9806352 L16.7584532,17.9806352 C17.6252698,17.9806352 18.3957734,17.416291 18.5883993,16.5697746 L20.996223,7.82243852 C20.996223,7.72838115 20.996223,7.63432377 20.996223,7.54026639 C20.996223,6.97592213 20.6109712,6.59969262 20.0330935,6.59969262 L15.6026978,6.59969262 Z M7.70503597,6.59969262 L10.5944245,2.46116803 L13.4838129,6.59969262 L7.70503597,6.59969262 Z M10.5944245,14.1242828 C9.53498201,14.1242828 8.66816547,13.2777664 8.66816547,12.2431352 C8.66816547,11.2085041 9.53498201,10.3619877 10.5944245,10.3619877 C11.6538669,10.3619877 12.5206835,11.2085041 12.5206835,12.2431352 C12.5206835,13.2777664 11.6538669,14.1242828 10.5944245,14.1242828 Z" id="Shape"></path>
                </g>
            </g>
        </g>
    </g>
</svg>